<?xml version="1.0" encoding="UTF-8"?>
<svg id="Layer_1" xmlns="http://www.w3.org/2000/svg" version="1.1" viewBox="0 0 455.6 308.9">
  <!-- Generator: Adobe Illustrator 29.0.1, SVG Export Plug-In . SVG Version: 2.1.0 Build 192)  -->
  <defs>
    <style>
      .st0 {
        fill: #606161;
      }

      .st1 {
        fill: #0a8aa9;
      }
    </style>
  </defs>
  <g>
    <polygon class="st1" points="228.8 163.5 251.6 154.4 251.6 113.1 228.8 113.1 228.8 163.5"/>
    <path class="st1" d="M270.8,22.4c-23.1,0-42.1,19-42.1,42.1v18.9h-43.9c-23.2,0-42.1,18.9-42.1,42.1s19,42.2,42.1,42.1c22.8-.1,41.6-19.1,41.6-42.1v-12.4h-41.6l10.2,17.5h8c-2.3,8-9.6,13.9-18.3,13.9s-19-8.5-19-19,8.5-19,19-19h42.1c14.4,0,23.1,0,37.5,0h6.4c23.2,0,42.1-18.9,42.1-42.1s-19-42.1-42.1-42.1ZM270.8,83.5h-19.2v-19c.1-10.5,8.8-19.1,19.2-19,10.3,0,19,8.5,19,19s-8.5,19-19,19Z"/>
  </g>
  <g>
    <g>
      <path class="st0" d="M104.4,196.4c3.1,0,6,.6,8.7,1.7,2.7,1.1,5.1,2.7,7.1,4.6,2,2,3.6,4.2,4.8,6.8,1.2,2.6,1.8,5.4,1.8,8.3v20.3h-10.5v-5c-1.3,1.9-3,3.4-5,4.5-2.1,1.1-4.3,1.7-6.8,1.7s-6-.6-8.7-1.7c-2.7-1.1-5.1-2.7-7.1-4.6-2-2-3.6-4.2-4.8-6.8-1.2-2.6-1.8-5.4-1.8-8.3s.6-5.7,1.8-8.3c1.2-2.6,2.8-4.9,4.8-6.8,2-2,4.4-3.5,7.1-4.6,2.7-1.1,5.6-1.7,8.7-1.7ZM104.7,229.1c1.6,0,3-.3,4.4-.9,1.4-.6,2.6-1.4,3.6-2.4,1-1,1.8-2.2,2.4-3.6.6-1.4.9-2.8.9-4.4s-.3-3-.9-4.4c-.6-1.4-1.4-2.6-2.4-3.6-1-1-2.2-1.8-3.6-2.4-1.4-.6-2.8-.9-4.4-.9s-3,.3-4.4.9c-1.4.6-2.6,1.4-3.6,2.4-1,1-1.8,2.2-2.4,3.6-.6,1.4-.9,2.8-.9,4.4s.3,3,.9,4.4c.6,1.4,1.4,2.6,2.4,3.6,1,1,2.2,1.8,3.6,2.4,1.4.6,2.8.9,4.4.9Z"/>
      <path class="st0" d="M142.4,184.1v13.5h11.3v9.6h-11.3v10.7c0,1.6.3,3,.9,4.4.6,1.4,1.4,2.6,2.4,3.6,1,1,2.2,1.8,3.6,2.4,1.4.6,2.8.9,4.4.9v10.2h-1.5c-3.1,0-5.9-.6-8.5-1.7-2.6-1.1-4.8-2.7-6.7-4.6-1.9-2-3.3-4.2-4.3-6.8-1-2.6-1.5-5.4-1.5-8.3v-33.8h11.3Z"/>
      <path class="st0" d="M179.4,196.4c3.1,0,6,.6,8.8,1.7,2.8,1.1,5.1,2.7,7.2,4.6,2,2,3.6,4.2,4.8,6.8,1.2,2.6,1.8,5.4,1.8,8.3s0,1.4-.1,2c0,.6-.2,1.3-.3,1.9h-32.8c.9,2.2,2.2,3.9,4.1,5.3,1.9,1.4,4,2.1,6.5,2.1s3.5-.4,5-1.2c1.6-.8,2.8-1.9,3.8-3.2h12.5c-.8,2.1-1.8,4.1-3.2,5.9-1.4,1.8-3,3.3-4.9,4.6-1.9,1.3-3.9,2.3-6.2,3-2.2.7-4.6,1.1-7.1,1.1s-6-.6-8.8-1.7c-2.8-1.1-5.1-2.7-7.2-4.6-2-2-3.6-4.2-4.8-6.8-1.2-2.6-1.8-5.4-1.8-8.3s.6-5.7,1.8-8.3c1.2-2.6,2.8-4.9,4.8-6.8,2-2,4.4-3.5,7.2-4.6,2.8-1.1,5.7-1.7,8.8-1.7ZM190,214c-.9-2.2-2.2-3.9-4.1-5.3-1.9-1.4-4.1-2.1-6.5-2.1s-4.6.7-6.5,2.1c-1.9,1.4-3.2,3.1-4.1,5.3h21.2Z"/>
      <path class="st0" d="M231.2,184.1v13.5h11.3v9.6h-11.3v10.7c0,1.6.3,3,.9,4.4.6,1.4,1.4,2.6,2.4,3.6,1,1,2.2,1.8,3.6,2.4,1.4.6,2.8.9,4.4.9v10.2h-1.5c-3.1,0-5.9-.6-8.5-1.7-2.6-1.1-4.8-2.7-6.7-4.6-1.9-2-3.3-4.2-4.3-6.8-1-2.6-1.5-5.4-1.5-8.3v-33.8h11.3Z"/>
      <path class="st0" d="M290.5,217.9c0,3-.6,5.7-1.8,8.3-1.2,2.6-2.8,4.9-4.8,6.8-2,2-4.4,3.5-7.1,4.6-2.7,1.1-5.6,1.7-8.7,1.7s-6-.6-8.7-1.7c-2.7-1.1-5.1-2.7-7.1-4.6-2-2-3.6-4.2-4.8-6.8-1.2-2.6-1.8-5.4-1.8-8.3s.6-5.7,1.8-8.3c1.2-2.6,2.8-4.9,4.8-6.8,2-2,4.4-3.5,7.1-4.6,2.7-1.1,5.6-1.7,8.7-1.7s6,.6,8.7,1.7c2.7,1.1,5.1,2.7,7.1,4.6,2,2,3.6,4.2,4.8,6.8,1.2,2.6,1.8,5.4,1.8,8.3ZM279.2,217.9c0-1.6-.3-3-.9-4.4-.6-1.4-1.4-2.6-2.4-3.6-1-1-2.2-1.8-3.5-2.4s-2.8-.9-4.4-.9-3,.3-4.4.9-2.5,1.4-3.5,2.4c-1,1-1.8,2.2-2.4,3.6-.6,1.4-.9,2.8-.9,4.4s.3,3,.9,4.4c.6,1.4,1.4,2.6,2.4,3.6,1,1,2.2,1.8,3.5,2.4,1.4.6,2.8.9,4.4.9s3-.3,4.4-.9c1.4-.6,2.5-1.4,3.5-2.4,1-1,1.8-2.2,2.4-3.6.6-1.4.9-2.8.9-4.4Z"/>
      <path class="st0" d="M368.7,196.4c3.1,0,6,.6,8.7,1.7,2.7,1.1,5.1,2.7,7.1,4.6,2,2,3.6,4.2,4.8,6.8,1.2,2.6,1.8,5.4,1.8,8.3v20.3h-10.5v-5c-1.3,1.9-3,3.4-5,4.5-2.1,1.1-4.3,1.7-6.8,1.7s-6-.6-8.7-1.7c-2.7-1.1-5.1-2.7-7.1-4.6-2-2-3.6-4.2-4.8-6.8-1.2-2.6-1.8-5.4-1.8-8.3s.6-5.7,1.8-8.3c1.2-2.6,2.8-4.9,4.8-6.8,2-2,4.4-3.5,7.1-4.6,2.7-1.1,5.6-1.7,8.7-1.7ZM369,229.1c1.6,0,3-.3,4.4-.9,1.4-.6,2.6-1.4,3.6-2.4,1-1,1.8-2.2,2.4-3.6.6-1.4.9-2.8.9-4.4s-.3-3-.9-4.4c-.6-1.4-1.4-2.6-2.4-3.6-1-1-2.2-1.8-3.6-2.4-1.4-.6-2.8-.9-4.4-.9s-3,.3-4.4.9c-1.4.6-2.6,1.4-3.6,2.4-1,1-1.8,2.2-2.4,3.6-.6,1.4-.9,2.8-.9,4.4s.3,3,.9,4.4c.6,1.4,1.4,2.6,2.4,3.6,1,1,2.2,1.8,3.6,2.4,1.4.6,2.8.9,4.4.9Z"/>
      <path class="st0" d="M402.2,197.6l10.5,23.4,10.6-23.4h12.3l-24.7,54.1h-12.6l8.3-18.3-16.7-35.8h12.3Z"/>
      <g>
        <path class="st0" d="M325.9,183.9c-10.3,0-19,8.4-19.1,18.9v18.9h19.1c10.4,0,18.9-8.5,18.9-18.9s-8.6-18.8-18.9-18.9ZM325.8,211.4h-8.7v-8.6c0-4.7,4-8.6,8.7-8.6,4.7,0,8.6,3.9,8.6,8.6s-3.8,8.6-8.6,8.6Z"/>
        <polygon class="st0" points="306.8 240.2 317.1 235.6 317.1 214.5 306.8 214.5 306.8 240.2"/>
      </g>
      <path class="st0" d="M78.1,209.3c0,3.9-.6,7.6-1.9,11.2-1.3,3.6-3.2,6.7-5.7,9.5-2.5,2.7-5.5,4.9-9.1,6.5-3.6,1.6-7.7,2.4-12.3,2.4s-7.8-.7-11.3-2.2c-3.5-1.5-6.6-3.4-9.3-6-2.6-2.5-4.7-5.5-6.2-8.8-1.5-3.4-2.3-7-2.3-10.8s.8-7.5,2.3-10.8c1.5-3.4,3.6-6.3,6.2-8.8,2.6-2.5,5.7-4.5,9.3-6,3.5-1.5,7.3-2.2,11.3-2.2s5.8.4,8.5,1.2c2.8.8,5.3,1.9,7.7,3.3,2.4,1.4,4.5,3.1,6.3,5.1,1.9,2,3.4,4.2,4.6,6.6h-13.8c-1.6-1.7-3.6-3-6-4-2.4-1-4.9-1.5-7.4-1.5s-4.6.4-6.7,1.3c-2.1.9-3.9,2.1-5.4,3.7-1.6,1.6-2.8,3.4-3.7,5.5-.9,2.1-1.4,4.3-1.4,6.7s.5,4.6,1.4,6.7c.9,2.1,2.1,3.9,3.7,5.4,1.6,1.6,3.4,2.8,5.4,3.7,2.1.9,4.3,1.4,6.7,1.4s3.9-.3,5.8-1c1.8-.7,3.5-1.6,5-2.8,1.5-1.2,2.7-2.6,3.8-4.2,1-1.6,1.8-3.3,2.2-5.2h-13.3l-5-8.6h30.6v2.8ZM69.4,235.9v-29.4c0,0,8.7,0,8.7,0v24.5c0,0-8.7,4.8-8.7,4.8Z"/>
    </g>
    <g>
      <path class="st0" d="M22.1,258.6h3.2l3.6,15.3h0l4.1-15.3h2.9l4.1,15.3h0l3.6-15.3h3.2l-5.3,19.5h-2.9l-4.2-14.7h0l-4.2,14.7h-2.9l-5.3-19.5Z"/>
      <path class="st0" d="M51.1,258.6h2.9v7.6h0c.4-.8.9-1.5,1.7-1.9.8-.5,1.7-.7,2.7-.7s1.9.2,2.7.7c.8.5,1.3,1.1,1.8,2,.4.9.6,1.9.6,3v8.8h-2.9v-8.2c0-1.2-.3-2.1-.9-2.8-.6-.7-1.4-1-2.4-1s-1.2.2-1.7.5c-.5.3-.9.8-1.2,1.3-.3.6-.4,1.2-.4,2v8.2h-2.9v-19.5Z"/>
      <path class="st0" d="M70.9,277.5c-1-.6-1.8-1.5-2.3-2.6-.5-1.1-.8-2.4-.8-3.9h0c0-1.5.3-2.8.8-3.9.5-1.1,1.3-2,2.3-2.6,1-.6,2.1-.9,3.5-.9s2.5.3,3.4.9c1,.6,1.7,1.4,2.2,2.5.5,1.1.8,2.3.8,3.7v1h-11.6v-2.1h10.1l-1.4,1.9v-1.1c0-1-.2-1.8-.5-2.5-.3-.7-.7-1.2-1.3-1.5s-1.2-.5-1.9-.5-1.3.2-1.9.5c-.5.3-1,.8-1.3,1.5-.3.7-.5,1.5-.5,2.4v1.1c0,.9.2,1.7.5,2.4.3.7.8,1.2,1.3,1.5.6.3,1.3.5,2,.5s1.1,0,1.5-.3.8-.4,1.1-.7.5-.6.6-1h0c0-.1,2.8-.1,2.8-.1h0c-.1.7-.3,1.2-.7,1.8-.3.5-.7,1-1.3,1.4-.5.4-1.1.7-1.8,1s-1.5.4-2.4.4c-1.4,0-2.6-.3-3.6-.9Z"/>
      <path class="st0" d="M85.1,263.9h2.9v2.4h0c.2-.8.6-1.5,1.2-2s1.3-.7,2.1-.7.4,0,.6,0,.3,0,.4,0v2.7c-.1,0-.3,0-.5-.1-.2,0-.5,0-.8,0-.6,0-1.2.1-1.6.4-.5.3-.8.6-1.1,1.1-.2.5-.4,1.1-.4,1.8v8.5h-2.9v-14.2Z"/>
      <path class="st0" d="M98.1,277.5c-1-.6-1.8-1.5-2.3-2.6-.5-1.1-.8-2.4-.8-3.9h0c0-1.5.3-2.8.8-3.9.5-1.1,1.3-2,2.3-2.6,1-.6,2.1-.9,3.5-.9s2.5.3,3.4.9c1,.6,1.7,1.4,2.2,2.5.5,1.1.8,2.3.8,3.7v1h-11.6v-2.1h10.1l-1.4,1.9v-1.1c0-1-.2-1.8-.5-2.5-.3-.7-.7-1.2-1.3-1.5s-1.2-.5-1.9-.5-1.3.2-1.9.5c-.5.3-1,.8-1.3,1.5-.3.7-.5,1.5-.5,2.4v1.1c0,.9.2,1.7.5,2.4.3.7.8,1.2,1.3,1.5s1.3.5,2,.5,1.1,0,1.5-.3.8-.4,1.1-.7.5-.6.6-1h0c0-.1,2.8-.1,2.8-.1h0c-.1.7-.3,1.2-.7,1.8-.3.5-.7,1-1.3,1.4-.5.4-1.1.7-1.8,1s-1.5.4-2.4.4c-1.4,0-2.6-.3-3.6-.9Z"/>
      <path class="st0" d="M120.4,258.6h12.2v2.6h-9.1v6.2h8.4v2.6h-8.4v8.2h-3v-19.5Z"/>
      <path class="st0" d="M137.3,261.2c-.3-.3-.5-.7-.5-1.2s.2-.9.5-1.2.7-.5,1.2-.5.9.2,1.2.5c.3.3.5.7.5,1.2s-.2.9-.5,1.2c-.3.3-.7.5-1.2.5s-.9-.2-1.2-.5ZM137,263.9h2.9v14.2h-2.9v-14.2Z"/>
      <path class="st0" d="M145,263.9h2.9v2.1h0c.4-.7.9-1.3,1.7-1.7.7-.4,1.6-.7,2.7-.7,1.6,0,2.8.5,3.6,1.4.9.9,1.3,2.2,1.3,3.9v9.2h-2.9v-8.6c0-1.1-.2-1.9-.7-2.5-.5-.6-1.3-.9-2.3-.9s-1.3.2-1.8.5-.9.7-1.2,1.3c-.3.5-.4,1.2-.4,1.9v8.3h-2.9v-14.2Z"/>
      <path class="st0" d="M164,277.5c-.7-.6-1-1.7-1-3.1v-8.1h-2v-2.3h2v-3.7h3v3.7h2.7v2.3h-2.7v8c0,.7.2,1.2.5,1.5.3.3.8.4,1.4.4s.3,0,.4,0c.1,0,.2,0,.4,0v2.3c-.2,0-.4,0-.6,0-.3,0-.5,0-.8,0-1.4,0-2.5-.3-3.1-1Z"/>
      <path class="st0" d="M175.3,277.5c-1-.6-1.8-1.5-2.3-2.6-.5-1.1-.8-2.4-.8-3.9h0c0-1.5.3-2.8.8-3.9s1.3-2,2.3-2.6c1-.6,2.1-.9,3.5-.9s2.5.3,3.4.9c1,.6,1.7,1.4,2.2,2.5.5,1.1.8,2.3.8,3.7v1h-11.6v-2.1h10.1l-1.4,1.9v-1.1c0-1-.2-1.8-.5-2.5-.3-.7-.7-1.2-1.3-1.5s-1.2-.5-1.9-.5-1.3.2-1.9.5c-.5.3-1,.8-1.3,1.5-.3.7-.5,1.5-.5,2.4v1.1c0,.9.2,1.7.5,2.4.3.7.8,1.2,1.3,1.5.6.3,1.3.5,2,.5s1.1,0,1.5-.3.8-.4,1.1-.7.5-.6.6-1h0c0-.1,2.8-.1,2.8-.1h0c-.1.7-.3,1.2-.7,1.8-.3.5-.7,1-1.3,1.4-.5.4-1.1.7-1.8,1s-1.5.4-2.4.4c-1.4,0-2.6-.3-3.6-.9Z"/>
      <path class="st0" d="M192,277.5c-1-.6-1.8-1.5-2.3-2.6-.5-1.1-.8-2.4-.8-3.9h0c0-1.5.3-2.8.8-3.9.6-1.1,1.3-1.9,2.3-2.5,1-.6,2.2-.9,3.5-.9s2.3.2,3.2.7c.9.5,1.6,1.1,2.1,1.8.5.8.8,1.6.9,2.5h0c0,.1-2.8.1-2.8.1h0c-.2-.8-.5-1.4-1-1.9-.5-.5-1.3-.8-2.2-.8s-1.4.2-2,.6c-.6.4-1,1-1.3,1.7s-.5,1.6-.5,2.6h0c0,1,.2,1.9.5,2.7.3.7.8,1.3,1.3,1.7.6.4,1.2.6,2,.6s1.6-.2,2.2-.7c.6-.5.9-1.1,1.1-1.9h0c0-.1,2.8-.1,2.8-.1h0c-.1,1-.4,1.9-1,2.7-.5.8-1.2,1.4-2.1,1.8-.9.4-1.9.7-3,.7s-2.6-.3-3.6-.9Z"/>
      <path class="st0" d="M206,258.6h2.9v7.6h0c.4-.8.9-1.5,1.7-1.9s1.7-.7,2.7-.7,1.9.2,2.7.7c.8.5,1.3,1.1,1.8,2,.4.9.6,1.9.6,3v8.8h-2.9v-8.2c0-1.2-.3-2.1-.9-2.8-.6-.7-1.4-1-2.4-1s-1.2.2-1.7.5c-.5.3-.9.8-1.2,1.3-.3.6-.4,1.2-.4,2v8.2h-2.9v-19.5Z"/>
      <path class="st0" d="M231.3,258.6h6.9c1.9,0,3.6.4,5,1.1,1.4.8,2.4,1.9,3.2,3.3.7,1.4,1.1,3.2,1.1,5.2h0c0,2.1-.4,3.8-1.1,5.3-.7,1.5-1.8,2.6-3.2,3.4-1.4.8-3,1.2-5,1.2h-6.9v-19.5ZM237.9,275.5c1.4,0,2.5-.3,3.5-.8s1.7-1.4,2.2-2.4.7-2.4.7-3.9h0c0-1.5-.2-2.8-.7-3.9-.5-1.1-1.2-1.9-2.2-2.4-1-.5-2.1-.8-3.5-.8h-3.6v14.3h3.6Z"/>
      <path class="st0" d="M252.1,263.9h2.9v2.4h0c.2-.8.6-1.5,1.2-2s1.3-.7,2.1-.7.4,0,.6,0,.3,0,.4,0v2.7c-.1,0-.3,0-.5-.1-.2,0-.5,0-.8,0-.6,0-1.2.1-1.6.4-.5.3-.8.6-1.1,1.1-.2.5-.4,1.1-.4,1.8v8.5h-2.9v-14.2Z"/>
      <path class="st0" d="M265.1,277.5c-1-.6-1.8-1.5-2.3-2.6-.5-1.1-.8-2.4-.8-3.9h0c0-1.5.3-2.8.8-3.9s1.3-2,2.3-2.6c1-.6,2.1-.9,3.5-.9s2.5.3,3.4.9c1,.6,1.7,1.4,2.2,2.5.5,1.1.8,2.3.8,3.7v1h-11.6v-2.1h10.1l-1.4,1.9v-1.1c0-1-.2-1.8-.5-2.5-.3-.7-.7-1.2-1.3-1.5s-1.2-.5-1.9-.5-1.3.2-1.9.5c-.5.3-1,.8-1.3,1.5-.3.7-.5,1.5-.5,2.4v1.1c0,.9.2,1.7.5,2.4.3.7.8,1.2,1.3,1.5s1.3.5,2,.5,1.1,0,1.5-.3.8-.4,1.1-.7.5-.6.6-1h0c0-.1,2.8-.1,2.8-.1h0c-.1.7-.3,1.2-.7,1.8-.3.5-.7,1-1.3,1.4-.5.4-1.1.7-1.8,1s-1.5.4-2.4.4c-1.4,0-2.6-.3-3.6-.9Z"/>
      <path class="st0" d="M281,277.8c-.7-.4-1.3-.9-1.7-1.5-.4-.6-.6-1.4-.6-2.2h0c0-1.3.5-2.3,1.4-3,.9-.7,2.2-1.1,3.9-1.2l5.4-.3v2.1l-5,.3c-.9,0-1.5.3-2,.6-.5.4-.7.8-.7,1.5h0c0,.6.2,1.1.7,1.5.5.4,1.1.5,1.9.5s1.3-.1,1.8-.4c.5-.3,1-.7,1.3-1.2.3-.5.5-1,.5-1.7v-4.2c0-.8-.2-1.4-.7-1.8-.5-.4-1.2-.7-2.1-.7s-1.5.2-2,.5-.8.8-1,1.4h0c0,.1-2.8.1-2.8.1h0c0-1,.3-1.7.8-2.4.5-.7,1.1-1.2,2-1.5s1.9-.6,3-.6,2.2.2,3,.6c.8.4,1.5.9,2,1.6.5.7.7,1.5.7,2.5v9.8h-2.9v-2.2h0c-.3.5-.6,1-1.1,1.3s-.9.7-1.5.9c-.6.2-1.1.3-1.8.3-.9,0-1.8-.2-2.5-.5Z"/>
      <path class="st0" d="M295.7,263.9h2.9v2.2h0c.3-.7.8-1.3,1.5-1.8.7-.4,1.5-.7,2.4-.7s1.2.1,1.8.3c.5.2,1,.5,1.4,1,.4.4.7.9.8,1.5h0c.2-.6.6-1.1,1-1.5.4-.4.9-.7,1.5-1,.6-.2,1.2-.3,1.9-.3s1.8.2,2.4.6c.7.4,1.2.9,1.6,1.6.4.7.6,1.5.6,2.5v9.8h-2.9v-9.1c0-.9-.2-1.6-.7-2.1s-1.1-.8-2-.8-1.1.1-1.5.4c-.4.3-.8.6-1,1.1-.2.5-.4,1-.4,1.6v8.9h-2.9v-9.3c0-.8-.2-1.5-.7-2s-1.1-.7-2-.7-1.1.1-1.5.4c-.4.3-.8.7-1,1.1-.3.5-.4,1-.4,1.6v8.8h-2.9v-14.2Z"/>
      <path class="st0" d="M322.9,277.9c-.9-.4-1.5-.9-2-1.5-.5-.7-.8-1.4-.9-2.3h0c0-.1,2.9-.1,2.9-.1h0c.1.8.5,1.3,1,1.7.5.4,1.2.5,2.1.5s1.1,0,1.5-.2.7-.4,1-.6c.2-.3.3-.6.3-1h0c0-.5-.1-.8-.4-1.1s-.8-.5-1.6-.7l-2.3-.5c-1.4-.3-2.4-.8-3-1.5-.7-.7-1-1.5-1-2.5h0c0-.9.2-1.6.7-2.3s1.1-1.1,1.9-1.5c.8-.4,1.8-.5,2.9-.5s2.1.2,2.9.6,1.4.9,1.9,1.5c.5.7.7,1.4.7,2.2v.2h-2.8c0-.7-.4-1.2-.8-1.6-.5-.4-1.1-.6-1.9-.6s-1,0-1.4.2c-.4.2-.7.4-.9.7-.2.3-.3.6-.3,1h0c0,.4.2.8.5,1.1.3.3.9.5,1.6.7l2.3.5c1.4.3,2.5.8,3.1,1.4.6.6.9,1.4.9,2.5h0c0,.9-.2,1.6-.7,2.3s-1.2,1.2-2,1.5c-.9.4-1.9.6-3,.6s-2.2-.2-3.1-.5Z"/>
      <path class="st0" d="M344.1,258.6h3v19.5h-3v-19.5ZM345.6,275.7h5.7c1.4,0,2.4-.3,3.1-.8.7-.5,1.1-1.3,1.1-2.4h0c0-.7-.2-1.3-.5-1.8-.3-.5-.8-.8-1.5-1.1-.6-.2-1.5-.4-2.4-.4h-5.5v-2.3h4.9c1.3,0,2.4-.3,3.1-.8.7-.5,1.1-1.3,1.1-2.2h0c0-.9-.3-1.6-.9-2.1-.6-.5-1.4-.7-2.5-.7h-5.5v-2.5h6.3c1.2,0,2.2.2,3,.6s1.5,1,2,1.7c.5.7.7,1.6.7,2.6h0c0,.7-.2,1.4-.5,2-.3.6-.7,1.1-1.3,1.5-.5.4-1.2.7-1.9.8h0c.9.1,1.7.4,2.4.8.7.4,1.2,1,1.6,1.7.4.7.6,1.5.6,2.3h0c0,1.2-.3,2.2-.8,3-.5.8-1.3,1.5-2.3,1.9-1,.4-2.2.7-3.6.7h-6.3v-2.5Z"/>
      <path class="st0" d="M365.4,277.5c-1-.6-1.8-1.5-2.3-2.6-.5-1.1-.8-2.4-.8-3.9h0c0-1.5.3-2.8.8-3.9.5-1.1,1.3-2,2.3-2.6s2.1-.9,3.5-.9,2.5.3,3.4.9c1,.6,1.7,1.4,2.2,2.5.5,1.1.8,2.3.8,3.7v1h-11.6v-2.1h10.1l-1.4,1.9v-1.1c0-1-.2-1.8-.5-2.5-.3-.7-.7-1.2-1.3-1.5s-1.2-.5-1.9-.5-1.3.2-1.9.5c-.5.3-1,.8-1.3,1.5-.3.7-.5,1.5-.5,2.4v1.1c0,.9.2,1.7.5,2.4.3.7.8,1.2,1.3,1.5s1.3.5,2,.5,1.1,0,1.5-.3.8-.4,1.1-.7.5-.6.6-1h0c0-.1,2.8-.1,2.8-.1h0c-.1.7-.3,1.2-.7,1.8-.3.5-.7,1-1.3,1.4-.5.4-1.1.7-1.8,1s-1.5.4-2.4.4c-1.4,0-2.6-.3-3.6-.9Z"/>
      <path class="st0" d="M382.7,282.6c-.9-.3-1.6-.8-2.2-1.4-.5-.6-.9-1.2-1-2h0c0-.1,2.9-.1,2.9-.1h0c.2.6.6.9,1.2,1.2.6.3,1.4.4,2.3.4s2-.3,2.7-.9c.6-.6.9-1.4.9-2.3v-2h0c-.3.5-.6,1-1.1,1.3-.4.4-.9.7-1.5.9-.6.2-1.2.3-1.9.3-1.2,0-2.2-.3-3.1-.9-.9-.6-1.6-1.4-2.1-2.5-.5-1.1-.7-2.4-.7-3.8h0c0-1.5.2-2.8.7-3.9.5-1.1,1.2-1.9,2.1-2.5.9-.6,1.9-.9,3.1-.9s1.3.1,1.9.3c.6.2,1.1.5,1.5.9.4.4.8.9,1.1,1.4h0v-2.4h2.9v13.8c0,1.1-.3,2-.8,2.8-.5.8-1.3,1.4-2.3,1.9-1,.4-2.1.7-3.5.7s-2.3-.2-3.2-.5ZM387.7,275.2c.6-.4,1-1,1.3-1.7.3-.7.5-1.6.5-2.5h0c0-1-.2-1.8-.5-2.5-.3-.7-.7-1.3-1.3-1.7-.6-.4-1.2-.6-1.9-.6s-1.4.2-2,.6c-.6.4-1,.9-1.3,1.7-.3.7-.5,1.6-.5,2.5h0c0,1,.2,1.9.5,2.6s.7,1.3,1.3,1.7c.6.4,1.2.6,2,.6s1.4-.2,2-.6Z"/>
      <path class="st0" d="M397.7,261.2c-.3-.3-.5-.7-.5-1.2s.2-.9.5-1.2.7-.5,1.2-.5.9.2,1.2.5c.3.3.5.7.5,1.2s-.2.9-.5,1.2c-.3.3-.7.5-1.2.5s-.9-.2-1.2-.5ZM397.4,263.9h2.9v14.2h-2.9v-14.2Z"/>
      <path class="st0" d="M405.4,263.9h2.9v2.1h0c.4-.7.9-1.3,1.7-1.7.7-.4,1.6-.7,2.7-.7,1.6,0,2.8.5,3.6,1.4.9.9,1.3,2.2,1.3,3.9v9.2h-2.9v-8.6c0-1.1-.2-1.9-.7-2.5-.5-.6-1.3-.9-2.3-.9s-1.3.2-1.8.5-.9.7-1.2,1.3c-.3.5-.4,1.2-.4,1.9v8.3h-2.9v-14.2Z"/>
    </g>
  </g>
</svg>