<?xml version="1.0" encoding="UTF-8"?>
<svg id="Layer_1" xmlns="http://www.w3.org/2000/svg" version="1.1" viewBox="0 0 455.6 126.7">
  <!-- Generator: Adobe Illustrator 29.0.1, SVG Export Plug-In . SVG Version: 2.1.0 Build 192)  -->
  <defs>
    <style>
      .st0 {
        fill: #EAF6FA;
      }

      .st1 {
        fill: #fff;
      }

      .st2 {
        fill: #0a8aa9;
      }
    </style>
  </defs>
  <g>
    <polygon class="st2" points="75.8 110.5 92.1 104 92.1 74.6 75.8 74.6 75.8 110.5"/>
    <path class="st2" d="M105.8,9.9c-16.4,0-30,13.5-30,30v13.5h-31.3c-16.5,0-30,13.5-30,30s13.5,30.1,30,30c16.3,0,29.7-13.6,29.7-30v-8.8h-29.7l7.3,12.5h5.7c-1.6,5.7-6.9,9.9-13,9.9s-13.5-6.1-13.5-13.5,6.1-13.5,13.5-13.5h61.3c16.5,0,30-13.5,30-30s-13.5-30-30-30h0ZM105.8,53.4h-13.7v-13.5c0-7.5,6.3-13.6,13.7-13.5,7.4,0,13.5,6.1,13.5,13.5s-6.1,13.5-13.5,13.5Z"/>
  </g>
  <g>
    <g>
      <path class="st0" d="M205.1,40.8c2.2,0,4.3.4,6.2,1.2s3.6,1.9,5,3.3c1.4,1.4,2.6,3,3.4,4.9.8,1.9,1.3,3.8,1.3,5.9v14.5h-7.5v-3.6c-.9,1.4-2.1,2.4-3.6,3.2-1.5.8-3.1,1.2-4.8,1.2s-4.2-.4-6.2-1.2c-1.9-.8-3.6-1.9-5.1-3.3-1.4-1.4-2.6-3-3.4-4.9-.8-1.9-1.3-3.8-1.3-5.9s.4-4.1,1.3-5.9c.8-1.9,2-3.5,3.4-4.9s3.1-2.5,5.1-3.3c1.9-.8,4-1.2,6.2-1.2h0ZM205.3,64.1c1.1,0,2.2-.2,3.1-.6,1-.4,1.8-1,2.5-1.7s1.3-1.6,1.7-2.5c.4-1,.6-2,.6-3.1s-.2-2.2-.6-3.1c-.4-1-1-1.8-1.7-2.5s-1.6-1.3-2.5-1.7c-1-.4-2-.6-3.1-.6s-2.2.2-3.1.6c-1,.4-1.8,1-2.5,1.7s-1.3,1.6-1.7,2.5c-.4,1-.6,2-.6,3.1s.2,2.2.6,3.1c.4,1,1,1.8,1.7,2.5s1.6,1.3,2.5,1.7c1,.4,2,.6,3.1.6Z"/>
      <path class="st0" d="M232.2,32v9.6h8v6.9h-8v7.6c0,1.1.2,2.2.6,3.1.4,1,1,1.8,1.7,2.5s1.6,1.3,2.5,1.7c1,.4,2,.6,3.1.6v7.3h-1.1c-2.2,0-4.2-.4-6.1-1.2-1.8-.8-3.4-1.9-4.7-3.3s-2.3-3-3.1-4.9c-.7-1.9-1.1-3.8-1.1-5.9v-24.1h8.2Z"/>
      <path class="st0" d="M258.5,40.8c2.2,0,4.3.4,6.3,1.2s3.7,1.9,5.1,3.3c1.4,1.4,2.6,3,3.4,4.9s1.3,3.8,1.3,5.9,0,1,0,1.4-.1.9-.2,1.4h-23.4c.6,1.5,1.6,2.8,2.9,3.8,1.3,1,2.9,1.5,4.6,1.5s2.5-.3,3.6-.9c1.1-.6,2-1.3,2.7-2.3h8.9c-.5,1.5-1.3,2.9-2.3,4.2-1,1.3-2.1,2.4-3.5,3.3s-2.8,1.6-4.4,2.1-3.3.8-5.1.8-4.3-.4-6.3-1.2c-2-.8-3.7-1.9-5.1-3.3-1.4-1.4-2.6-3-3.4-4.9-.8-1.9-1.3-3.8-1.3-5.9s.4-4.1,1.3-5.9c.8-1.9,2-3.5,3.4-4.9s3.2-2.5,5.1-3.3c2-.8,4.1-1.2,6.3-1.2h.1ZM266.1,53.3c-.6-1.5-1.6-2.8-2.9-3.8-1.4-1-2.9-1.5-4.6-1.5s-3.3.5-4.6,1.5-2.3,2.2-2.9,3.8h15.1-.1Z"/>
      <path class="st0" d="M295.5,32v9.6h8v6.9h-8v7.6c0,1.1.2,2.2.6,3.1.4,1,1,1.8,1.7,2.5s1.6,1.3,2.5,1.7c1,.4,2,.6,3.1.6v7.3h-1.1c-2.2,0-4.2-.4-6.1-1.2-1.8-.8-3.4-1.9-4.7-3.3-1.3-1.4-2.3-3-3.1-4.9-.7-1.9-1.1-3.8-1.1-5.9v-24.1h8.2Z"/>
      <path class="st0" d="M337.7,56.1c0,2.1-.4,4.1-1.3,5.9-.8,1.9-2,3.5-3.4,4.9s-3.1,2.5-5.1,3.3c-1.9.8-4,1.2-6.2,1.2s-4.3-.4-6.2-1.2c-1.9-.8-3.6-1.9-5.1-3.3-1.4-1.4-2.6-3-3.4-4.9s-1.3-3.8-1.3-5.9.4-4.1,1.3-5.9c.8-1.9,2-3.5,3.4-4.9s3.1-2.5,5.1-3.3c1.9-.8,4-1.2,6.2-1.2s4.3.4,6.2,1.2c1.9.8,3.6,1.9,5.1,3.3,1.4,1.4,2.6,3,3.4,4.9s1.3,3.8,1.3,5.9ZM329.7,56.1c0-1.1-.2-2.2-.6-3.1-.4-1-1-1.8-1.7-2.5s-1.6-1.3-2.5-1.7-2-.6-3.1-.6-2.1.2-3.1.6-1.8,1-2.5,1.7-1.3,1.6-1.7,2.5c-.4,1-.6,2-.6,3.1s.2,2.2.6,3.1c.4,1,1,1.8,1.7,2.5s1.6,1.3,2.5,1.7c1,.4,2,.6,3.1.6s2.1-.2,3.1-.6c1-.4,1.8-1,2.5-1.7s1.3-1.6,1.7-2.5c.4-1,.6-2,.6-3.1Z"/>
      <path class="st0" d="M393.5,40.8c2.2,0,4.3.4,6.2,1.2,1.9.8,3.6,1.9,5,3.3,1.4,1.4,2.6,3,3.4,4.9s1.3,3.8,1.3,5.9v14.5h-7.5v-3.6c-.9,1.4-2.1,2.4-3.6,3.2-1.5.8-3.1,1.2-4.8,1.2s-4.2-.4-6.2-1.2c-1.9-.8-3.6-1.9-5.1-3.3-1.4-1.4-2.6-3-3.4-4.9s-1.3-3.8-1.3-5.9.4-4.1,1.3-5.9c.8-1.9,2-3.5,3.4-4.9s3.1-2.5,5.1-3.3c1.9-.8,4-1.2,6.2-1.2ZM393.7,64.1c1.1,0,2.2-.2,3.1-.6,1-.4,1.8-1,2.5-1.7s1.3-1.6,1.7-2.5c.4-1,.6-2,.6-3.1s-.2-2.2-.6-3.1c-.4-1-1-1.8-1.7-2.5s-1.6-1.3-2.5-1.7c-1-.4-2-.6-3.1-.6s-2.2.2-3.1.6c-1,.4-1.8,1-2.5,1.7s-1.3,1.6-1.7,2.5c-.4,1-.6,2-.6,3.1s.2,2.2.6,3.1c.4,1,1,1.8,1.7,2.5s1.6,1.3,2.5,1.7c1,.4,2,.6,3.1.6Z"/>
      <path class="st0" d="M417.4,41.6l7.5,16.7,7.6-16.7h8.7l-17.6,38.6h-8.9l5.9-13.1-11.9-25.5h8.7,0Z"/>
      <g>
        <path class="st0" d="M362.9,31.9c-7.4,0-13.5,6-13.6,13.4v13.4h13.6c7.4,0,13.4-6,13.4-13.4s-6.1-13.4-13.4-13.4ZM362.9,51.5h-6.2v-6.1c0-3.4,2.8-6.1,6.2-6.1s6.1,2.7,6.1,6.1-2.7,6.1-6.1,6.1Z"/>
        <polygon class="st0" points="349.3 72.1 356.7 68.7 356.7 53.7 349.3 53.7 349.3 72.1"/>
      </g>
      <path class="st0" d="M186.3,50c0,2.8-.5,5.4-1.4,8s-2.3,4.8-4,6.8c-1.8,2-4,3.5-6.5,4.6-2.6,1.1-5.5,1.7-8.8,1.7s-5.5-.5-8-1.6c-2.5-1-4.7-2.5-6.6-4.2-1.9-1.8-3.4-3.9-4.4-6.3-1.1-2.4-1.6-5-1.6-7.7s.5-5.3,1.6-7.7,2.6-4.5,4.4-6.3c1.9-1.8,4.1-3.2,6.6-4.2s5.2-1.6,8-1.6,4.1.3,6.1.8c2,.6,3.8,1.3,5.5,2.3s3.2,2.2,4.5,3.6c1.3,1.4,2.4,3,3.2,4.7h-9.8c-1.1-1.2-2.5-2.1-4.2-2.9-1.7-.7-3.5-1.1-5.3-1.1s-3.3.3-4.8,1c-1.5.6-2.8,1.5-3.9,2.6-1.1,1.1-2,2.4-2.6,3.9-.7,1.5-1,3.1-1,4.8s.3,3.3,1,4.8,1.5,2.8,2.6,3.9c1.1,1.1,2.4,2,3.9,2.6,1.5.7,3.1,1,4.8,1s2.8-.2,4.1-.7,2.5-1.1,3.5-2c1.1-.8,2-1.8,2.7-3,.7-1.1,1.3-2.4,1.6-3.7h-9.5l-3.6-6.1h21.8v2h0ZM180.1,69v-21h6.2v17.5l-6.2,3.5Z"/>
    </g>
    <g>
      <path class="st0" d="M146.4,85.2h2.3l2.6,10.9h0l2.9-10.9h2.1l2.9,10.9h0l2.6-10.9h2.3l-3.7,13.9h-2.1l-3-10.5h0l-3,10.5h-2.1l-3.7-13.9h-.1Z"/>
      <path class="st0" d="M167.1,85.2h2.1v5.4h0c.3-.6.7-1,1.2-1.4s1.2-.5,1.9-.5,1.4.2,1.9.5,1,.8,1.3,1.4.4,1.3.4,2.1v6.3h-2.1v-5.9c0-.8-.2-1.5-.6-2-.4-.5-1-.7-1.7-.7s-.9,0-1.2.3c-.4.2-.6.5-.8.9s-.3.9-.3,1.4v5.9h-2.1v-13.9.2Z"/>
      <path class="st0" d="M181.2,98.6c-.7-.4-1.3-1-1.6-1.8-.4-.8-.6-1.7-.6-2.8h0c0-1.1.2-2,.6-2.8s.9-1.4,1.6-1.8,1.5-.7,2.5-.7,1.8.2,2.5.6,1.2,1,1.6,1.8c.4.8.6,1.7.6,2.7v.7h-8.2v-1.5h7.2l-1,1.4v-.8c0-.7-.1-1.3-.3-1.8s-.5-.8-.9-1.1-.8-.3-1.3-.3-.9,0-1.3.4c-.4.2-.7.6-.9,1.1s-.3,1.1-.3,1.7v.8c0,.7.1,1.2.3,1.7s.5.8.9,1.1.9.4,1.5.4.8,0,1.1-.2.6-.3.8-.5.4-.4.4-.7h2c0,.5-.2.9-.5,1.3-.2.4-.5.7-.9,1s-.8.5-1.3.7-1.1.3-1.7.3c-1,0-1.8-.2-2.6-.6l-.2-.3Z"/>
      <path class="st0" d="M191.3,88.9h2.1v1.7h0c.2-.6.4-1.1.9-1.4s.9-.5,1.5-.5.3,0,.4,0h.3v1.9h-1c-.4,0-.8,0-1.2.3-.3.2-.6.5-.8.8-.2.4-.3.8-.3,1.3v6h-2.1v-10.1h.2Z"/>
      <path class="st0" d="M200.6,98.6c-.7-.4-1.3-1-1.6-1.8-.4-.8-.6-1.7-.6-2.8h0c0-1.1.2-2,.6-2.8s.9-1.4,1.6-1.8,1.5-.7,2.5-.7,1.8.2,2.5.6,1.2,1,1.6,1.8c.4.8.6,1.7.6,2.7v.7h-8.2v-1.5h7.2l-1,1.4v-.8c0-.7-.1-1.3-.3-1.8s-.5-.8-.9-1.1-.8-.3-1.3-.3-.9,0-1.3.4c-.4.2-.7.6-.9,1.1s-.3,1.1-.3,1.7v.8c0,.7.1,1.2.3,1.7s.5.8.9,1.1.9.4,1.5.4.8,0,1.1-.2.6-.3.8-.5.4-.4.4-.7h2c0,.5-.2.9-.5,1.3-.2.4-.5.7-.9,1s-.8.5-1.3.7-1.1.3-1.7.3c-1,0-1.8-.2-2.6-.6l-.2-.3Z"/>
      <path class="st0" d="M216.5,85.2h8.7v1.9h-6.5v4.4h6v1.8h-6v5.8h-2.2v-13.9Z"/>
      <path class="st0" d="M228.5,87c-.2-.2-.4-.5-.4-.8s.1-.6.4-.9.5-.3.9-.3.6,0,.9.3c.2.2.4.5.4.9s-.1.6-.4.8c-.2.2-.5.4-.9.4s-.6,0-.9-.4ZM228.3,88.9h2.1v10.1h-2.1v-10.1Z"/>
      <path class="st0" d="M234,88.9h2.1v1.5h0c.3-.5.7-.9,1.2-1.2.5-.3,1.2-.5,1.9-.5,1.1,0,2,.3,2.6,1s.9,1.6.9,2.8v6.6h-2.1v-6.2c0-.8-.2-1.4-.5-1.8-.4-.4-.9-.6-1.6-.6s-.9,0-1.3.3-.6.5-.8.9-.3.9-.3,1.4v5.9h-2.1v-10.1h0Z"/>
      <path class="st0" d="M247.6,98.6c-.5-.5-.7-1.2-.7-2.2v-5.8h-1.5v-1.7h1.5v-2.6h2.1v2.6h1.9v1.7h-1.9v5.7c0,.5.1.9.3,1.1s.6.3,1,.3.2,0,.3,0h.3v1.6h-1.1c-1,0-1.7-.2-2.2-.7h0Z"/>
      <path class="st0" d="M255.6,98.6c-.7-.4-1.3-1-1.6-1.8-.4-.8-.6-1.7-.6-2.8h0c0-1.1.2-2,.6-2.8s.9-1.4,1.6-1.8,1.5-.7,2.5-.7,1.8.2,2.5.6,1.2,1,1.6,1.8.6,1.7.6,2.7v.7h-8.2v-1.5h7.2l-1,1.4v-.8c0-.7-.1-1.3-.3-1.8-.2-.5-.5-.8-.9-1.1s-.8-.3-1.3-.3-.9,0-1.3.4c-.4.2-.7.6-.9,1.1-.2.5-.3,1.1-.3,1.7v.8c0,.7.1,1.2.3,1.7.2.5.5.8.9,1.1s.9.4,1.5.4.8,0,1.1-.2.6-.3.8-.5.4-.4.4-.7h2c0,.5-.2.9-.5,1.3-.2.4-.5.7-.9,1s-.8.5-1.3.7-1.1.3-1.7.3c-1,0-1.8-.2-2.6-.6l-.2-.3Z"/>
      <path class="st0" d="M267.5,98.6c-.7-.4-1.3-1-1.7-1.8-.4-.8-.6-1.7-.6-2.8h0c0-1.1.2-2,.6-2.8s1-1.4,1.7-1.8,1.6-.6,2.5-.6,1.6.2,2.2.5,1.1.8,1.5,1.3.6,1.1.6,1.8h-2c-.1-.6-.4-1-.7-1.4-.4-.4-.9-.5-1.6-.5s-1,0-1.4.4-.7.7-.9,1.2-.3,1.1-.3,1.9h0c0,.7.1,1.4.3,1.9.2.5.5.9.9,1.2.4.3.9.4,1.4.4s1.2-.2,1.6-.5.7-.8.8-1.3h2c0,.7-.3,1.3-.7,1.9-.4.5-.9,1-1.5,1.3s-1.3.5-2.2.5-1.8-.2-2.6-.6v-.2Z"/>
      <path class="st0" d="M277.5,85.2h2.1v5.4h0c.3-.6.7-1,1.2-1.4s1.2-.5,1.9-.5,1.4.2,1.9.5,1,.8,1.3,1.4.4,1.3.4,2.1v6.3h-2.1v-5.9c0-.8-.2-1.5-.6-2s-1-.7-1.7-.7-.9,0-1.2.3c-.4.2-.6.5-.8.9-.2.4-.3.9-.3,1.4v5.9h-2.1v-13.9.2Z"/>
      <path class="st0" d="M295.6,85.2h4.9c1.4,0,2.6.3,3.5.8,1,.5,1.7,1.3,2.3,2.4.5,1,.8,2.3.8,3.7h0c0,1.5-.3,2.7-.8,3.8-.5,1-1.3,1.8-2.2,2.4-1,.5-2.2.8-3.5.8h-4.9v-13.9h0ZM300.3,97.2c1,0,1.8-.2,2.5-.6s1.2-1,1.6-1.7.5-1.7.5-2.8h0c0-1.1-.2-2-.5-2.8s-.9-1.3-1.6-1.7c-.7-.4-1.5-.6-2.5-.6h-2.5v10.2h2.5Z"/>
      <path class="st0" d="M310.3,88.9h2.1v1.7h0c.2-.6.4-1.1.9-1.4s.9-.5,1.5-.5.3,0,.4,0h.3v1.9h-1c-.4,0-.8,0-1.2.3-.3.2-.6.5-.8.8-.2.4-.3.8-.3,1.3v6h-2.1v-10.1h.2Z"/>
      <path class="st0" d="M319.6,98.6c-.7-.4-1.3-1-1.6-1.8-.4-.8-.6-1.7-.6-2.8h0c0-1.1.2-2,.6-2.8s.9-1.4,1.6-1.8,1.5-.7,2.5-.7,1.8.2,2.5.6,1.2,1,1.6,1.8.6,1.7.6,2.7v.7h-8.2v-1.5h7.2l-1,1.4v-.8c0-.7-.1-1.3-.3-1.8-.2-.5-.5-.8-.9-1.1s-.8-.3-1.3-.3-.9,0-1.3.4c-.4.2-.7.6-.9,1.1-.2.5-.3,1.1-.3,1.7v.8c0,.7.1,1.2.3,1.7.2.5.5.8.9,1.1s.9.4,1.5.4.8,0,1.1-.2.6-.3.8-.5.4-.4.4-.7h2c0,.5-.2.9-.5,1.3-.2.4-.5.7-.9,1s-.8.5-1.3.7-1.1.3-1.7.3c-1,0-1.8-.2-2.6-.6l-.2-.3Z"/>
      <path class="st0" d="M331,98.9c-.5-.3-.9-.6-1.2-1.1-.3-.5-.4-1-.4-1.6h0c0-.9.3-1.6,1-2.1s1.6-.8,2.8-.9l3.8-.2v1.5l-3.6.2c-.6,0-1.1.2-1.4.4-.3.3-.5.6-.5,1h0c0,.5.2.8.5,1.1.3.3.8.4,1.3.4s.9,0,1.3-.3c.4-.2.7-.5.9-.8.2-.3.3-.7.3-1.2v-3c0-.6-.2-1-.5-1.3s-.8-.5-1.5-.5-1.1,0-1.4.4-.6.6-.7,1h-2c0-.7.2-1.2.6-1.7.3-.5.8-.8,1.4-1.1s1.3-.4,2.1-.4,1.5,0,2.1.4,1.1.7,1.4,1.2.5,1.1.5,1.8v7h-2.1v-1.6h0c-.2.4-.5.7-.8.9s-.7.5-1.1.6-.8.2-1.3.2-1.3,0-1.8-.4h.3Z"/>
      <path class="st0" d="M341.5,88.9h2.1v1.6h0c.2-.5.6-1,1.1-1.3s1.1-.5,1.7-.5.9,0,1.3.2.7.4,1,.7c.3.3.5.7.6,1.1h0c.2-.4.4-.8.7-1.1.3-.3.7-.5,1.1-.7s.9-.2,1.3-.2,1.2,0,1.7.4.9.7,1.2,1.2c.3.5.4,1.1.4,1.8v7h-2.1v-6.5c0-.7-.2-1.2-.5-1.5s-.8-.5-1.4-.5-.8,0-1.1.3c-.3.2-.6.4-.7.8-.2.3-.3.7-.3,1.1v6.3h-2.1v-6.6c0-.6-.2-1.1-.5-1.4s-.8-.5-1.4-.5-.8,0-1.1.3c-.3.2-.6.5-.7.8-.2.3-.3.7-.3,1.2v6.3h-2.1v-10.3Z"/>
      <path class="st0" d="M360.8,98.9c-.6-.3-1.1-.6-1.4-1.1s-.6-1-.6-1.6h2.1c.1.6.3.9.7,1.2.4.3.8.4,1.5.4s.8,0,1.1-.2.5-.3.7-.5.2-.4.2-.7h0c0-.3-.1-.6-.3-.8s-.6-.4-1.1-.5l-1.7-.4c-1-.2-1.7-.6-2.2-1-.5-.5-.7-1.1-.7-1.8h0c0-.6.2-1.2.5-1.6s.8-.8,1.4-1.1c.6-.3,1.3-.4,2.1-.4s1.5,0,2.1.4,1,.6,1.4,1.1c.3.5.5,1,.5,1.6h0c0,0-2,0-2,0h0c0-.5-.3-.9-.6-1.2-.3-.3-.8-.4-1.4-.4s-.7,0-1,.2c-.3,0-.5.3-.6.5s-.2.4-.2.7h0c0,.3.1.6.3.8.2.2.6.4,1.2.5l1.7.4c1,.2,1.8.6,2.2,1,.4.4.7,1,.7,1.7h0c0,.6-.2,1.2-.5,1.6s-.8.8-1.5,1.1c-.6.3-1.3.4-2.1.4s-1.6,0-2.2-.4h-.3Z"/>
      <path class="st0" d="M375.9,85.2h2.2v13.9h-2.2v-13.9ZM377,97.3h4.1c1,0,1.7-.2,2.2-.6s.8-.9.8-1.7h0c0-.5-.1-.9-.4-1.3-.2-.3-.6-.6-1-.8-.5-.2-1-.3-1.7-.3h-3.9v-1.7h3.5c.9,0,1.7-.2,2.2-.6s.8-.9.8-1.6h0c0-.7-.2-1.2-.6-1.5s-1-.5-1.8-.5h-3.9v-1.8h4.5c.8,0,1.5,0,2.2.4s1.1.7,1.4,1.2.5,1.1.5,1.8h0c0,.5-.1,1-.3,1.4-.2.4-.5.8-.9,1.1-.4.3-.8.5-1.3.5h0c.7,0,1.2.3,1.7.6.5.3.9.7,1.1,1.2.3.5.4,1,.4,1.7h0c0,.8-.2,1.5-.6,2.1s-.9,1-1.6,1.3-1.6.5-2.5.5h-4.5v-1.8l-.4.4Z"/>
      <path class="st0" d="M391.1,98.6c-.7-.4-1.3-1-1.6-1.8-.4-.8-.6-1.7-.6-2.8h0c0-1.1.2-2,.6-2.8s.9-1.4,1.6-1.8,1.5-.7,2.5-.7,1.8.2,2.5.6,1.2,1,1.6,1.8.6,1.7.6,2.7v.7h-8.2v-1.5h7.2l-1,1.4v-.8c0-.7-.1-1.3-.3-1.8-.2-.5-.5-.8-.9-1.1s-.8-.3-1.3-.3-.9,0-1.3.4c-.4.2-.7.6-.9,1.1-.2.5-.3,1.1-.3,1.7v.8c0,.7.1,1.2.3,1.7.2.5.5.8.9,1.1s.9.4,1.5.4.8,0,1.1-.2.6-.3.8-.5.4-.4.4-.7h2c0,.5-.2.9-.5,1.3-.2.4-.5.7-.9,1s-.8.5-1.3.7-1.1.3-1.7.3c-1,0-1.8-.2-2.6-.6l-.2-.3Z"/>
      <path class="st0" d="M403.4,102.3c-.6-.2-1.2-.6-1.6-1s-.6-.9-.7-1.4h2.1c.1.4.4.7.9.9.4.2,1,.3,1.6.3s1.5-.2,1.9-.6.7-1,.7-1.7v-1.4h0c-.2.4-.4.7-.8,1-.3.3-.7.5-1.1.6s-.9.2-1.3.2c-.8,0-1.6-.2-2.2-.6s-1.1-1-1.5-1.8c-.3-.8-.5-1.7-.5-2.7h0c0-1.1.2-2,.5-2.8.4-.8.8-1.4,1.5-1.8.6-.4,1.4-.6,2.2-.6s.9,0,1.3.2.8.4,1.1.7c.3.3.6.6.8,1h0v-1.7h2.1v9.9c0,.8-.2,1.4-.6,2s-.9,1-1.6,1.3-1.5.5-2.5.5-1.6,0-2.3-.4h0ZM407,96.9c.4-.3.7-.7.9-1.2.2-.5.3-1.1.3-1.8h0c0-.7-.1-1.3-.3-1.8-.2-.5-.5-.9-.9-1.2-.4-.3-.9-.4-1.4-.4s-1,0-1.4.4-.7.7-.9,1.2c-.2.5-.3,1.1-.3,1.8h0c0,.7.1,1.3.3,1.8s.5.9.9,1.2c.4.3.9.4,1.4.4s1,0,1.4-.4Z"/>
      <path class="st0" d="M414.1,87c-.2-.2-.4-.5-.4-.8s.1-.6.4-.9.5-.3.9-.3.6,0,.9.3c.2.2.4.5.4.9s-.1.6-.4.8c-.2.2-.5.4-.9.4s-.6,0-.9-.4ZM413.9,88.9h2.1v10.1h-2.1v-10.1Z"/>
      <path class="st0" d="M419.6,88.9h2.1v1.5h0c.3-.5.7-.9,1.2-1.2.5-.3,1.2-.5,1.9-.5,1.1,0,2,.3,2.6,1s.9,1.6.9,2.8v6.6h-2.1v-6.2c0-.8-.2-1.4-.5-1.8-.4-.4-.9-.6-1.6-.6s-.9,0-1.3.3-.6.5-.8.9c-.2.4-.3.9-.3,1.4v5.9h-2.1v-10.1h0Z"/>
    </g>
  </g>
  <g>
    <polygon class="st2" points="-34.7 -128.1 -18.4 -134.6 -18.4 -164 -34.7 -164 -34.7 -128.1"/>
    <path class="st2" d="M-4.7-228.7c-16.4,0-30,13.5-30,30v13.5h-31.3c-16.5,0-30,13.5-30,30s13.5,30.1,30,30c16.3,0,29.7-13.6,29.7-30v-8.8h-29.7l7.3,12.5h5.7c-1.6,5.7-6.9,9.9-13,9.9s-13.5-6.1-13.5-13.5,6.1-13.5,13.5-13.5H-4.7c16.5,0,30-13.5,30-30s-13.5-30-30-30h0ZM-4.7-185.2h-13.7v-13.5c0-7.5,6.3-13.6,13.7-13.5,7.4,0,13.5,6.1,13.5,13.5s-6.1,13.5-13.5,13.5Z"/>
  </g>
  <g>
    <g>
      <path class="st1" d="M94.6-197.8c2.2,0,4.3.4,6.2,1.2s3.6,1.9,5,3.3c1.4,1.4,2.6,3,3.4,4.9.8,1.9,1.3,3.8,1.3,5.9v14.5h-7.5v-3.6c-.9,1.4-2.1,2.4-3.6,3.2-1.5.8-3.1,1.2-4.8,1.2s-4.2-.4-6.2-1.2c-1.9-.8-3.6-1.9-5.1-3.3-1.4-1.4-2.6-3-3.4-4.9-.8-1.9-1.3-3.8-1.3-5.9s.4-4.1,1.3-5.9c.8-1.9,2-3.5,3.4-4.9s3.1-2.5,5.1-3.3c1.9-.8,4-1.2,6.2-1.2h0ZM94.8-174.5c1.1,0,2.2-.2,3.1-.6,1-.4,1.8-1,2.5-1.7s1.3-1.6,1.7-2.5c.4-1,.6-2,.6-3.1s-.2-2.2-.6-3.1c-.4-1-1-1.8-1.7-2.5s-1.6-1.3-2.5-1.7c-1-.4-2-.6-3.1-.6s-2.2.2-3.1.6c-1,.4-1.8,1-2.5,1.7s-1.3,1.6-1.7,2.5c-.4,1-.6,2-.6,3.1s.2,2.2.6,3.1c.4,1,1,1.8,1.7,2.5s1.6,1.3,2.5,1.7c1,.4,2,.6,3.1.6Z"/>
      <path class="st1" d="M121.7-206.6v9.6h8v6.9h-8v7.6c0,1.1.2,2.2.6,3.1.4,1,1,1.8,1.7,2.5s1.6,1.3,2.5,1.7c1,.4,2,.6,3.1.6v7.3h-1.1c-2.2,0-4.2-.4-6.1-1.2-1.8-.8-3.4-1.9-4.7-3.3s-2.3-3-3.1-4.9c-.7-1.9-1.1-3.8-1.1-5.9v-24.1h8.2Z"/>
      <path class="st1" d="M148-197.8c2.2,0,4.3.4,6.3,1.2s3.7,1.9,5.1,3.3c1.4,1.4,2.6,3,3.4,4.9s1.3,3.8,1.3,5.9,0,1,0,1.4-.1.9-.2,1.4h-23.4c.6,1.5,1.6,2.8,2.9,3.8,1.3,1,2.9,1.5,4.6,1.5s2.5-.3,3.6-.9c1.1-.6,2-1.3,2.7-2.3h8.9c-.5,1.5-1.3,2.9-2.3,4.2-1,1.3-2.1,2.4-3.5,3.3s-2.8,1.6-4.4,2.1-3.3.8-5.1.8-4.3-.4-6.3-1.2c-2-.8-3.7-1.9-5.1-3.3-1.4-1.4-2.6-3-3.4-4.9-.8-1.9-1.3-3.8-1.3-5.9s.4-4.1,1.3-5.9c.8-1.9,2-3.5,3.4-4.9s3.2-2.5,5.1-3.3c2-.8,4.1-1.2,6.3-1.2h.1ZM155.6-185.3c-.6-1.5-1.6-2.8-2.9-3.8-1.4-1-2.9-1.5-4.6-1.5s-3.3.5-4.6,1.5-2.3,2.2-2.9,3.8h15.1-.1Z"/>
      <path class="st1" d="M185-206.6v9.6h8v6.9h-8v7.6c0,1.1.2,2.2.6,3.1.4,1,1,1.8,1.7,2.5s1.6,1.3,2.5,1.7c1,.4,2,.6,3.1.6v7.3h-1.1c-2.2,0-4.2-.4-6.1-1.2-1.8-.8-3.4-1.9-4.7-3.3-1.3-1.4-2.3-3-3.1-4.9-.7-1.9-1.1-3.8-1.1-5.9v-24.1h8.2Z"/>
      <path class="st1" d="M227.2-182.5c0,2.1-.4,4.1-1.3,5.9-.8,1.9-2,3.5-3.4,4.9s-3.1,2.5-5.1,3.3c-1.9.8-4,1.2-6.2,1.2s-4.3-.4-6.2-1.2c-1.9-.8-3.6-1.9-5.1-3.3-1.4-1.4-2.6-3-3.4-4.9s-1.3-3.8-1.3-5.9.4-4.1,1.3-5.9c.8-1.9,2-3.5,3.4-4.9s3.1-2.5,5.1-3.3c1.9-.8,4-1.2,6.2-1.2s4.3.4,6.2,1.2c1.9.8,3.6,1.9,5.1,3.3,1.4,1.4,2.6,3,3.4,4.9s1.3,3.8,1.3,5.9ZM219.2-182.5c0-1.1-.2-2.2-.6-3.1-.4-1-1-1.8-1.7-2.5s-1.6-1.3-2.5-1.7-2-.6-3.1-.6-2.1.2-3.1.6-1.8,1-2.5,1.7-1.3,1.6-1.7,2.5c-.4,1-.6,2-.6,3.1s.2,2.2.6,3.1c.4,1,1,1.8,1.7,2.5s1.6,1.3,2.5,1.7c1,.4,2,.6,3.1.6s2.1-.2,3.1-.6c1-.4,1.8-1,2.5-1.7s1.3-1.6,1.7-2.5c.4-1,.6-2,.6-3.1Z"/>
      <path class="st1" d="M283-197.8c2.2,0,4.3.4,6.2,1.2,1.9.8,3.6,1.9,5,3.3,1.4,1.4,2.6,3,3.4,4.9s1.3,3.8,1.3,5.9v14.5h-7.5v-3.6c-.9,1.4-2.1,2.4-3.6,3.2-1.5.8-3.1,1.2-4.8,1.2s-4.2-.4-6.2-1.2c-1.9-.8-3.6-1.9-5.1-3.3-1.4-1.4-2.6-3-3.4-4.9s-1.3-3.8-1.3-5.9.4-4.1,1.3-5.9c.8-1.9,2-3.5,3.4-4.9s3.1-2.5,5.1-3.3c1.9-.8,4-1.2,6.2-1.2ZM283.2-174.5c1.1,0,2.2-.2,3.1-.6,1-.4,1.8-1,2.5-1.7s1.3-1.6,1.7-2.5c.4-1,.6-2,.6-3.1s-.2-2.2-.6-3.1c-.4-1-1-1.8-1.7-2.5s-1.6-1.3-2.5-1.7c-1-.4-2-.6-3.1-.6s-2.2.2-3.1.6c-1,.4-1.8,1-2.5,1.7s-1.3,1.6-1.7,2.5c-.4,1-.6,2-.6,3.1s.2,2.2.6,3.1c.4,1,1,1.8,1.7,2.5s1.6,1.3,2.5,1.7c1,.4,2,.6,3.1.6Z"/>
      <path class="st1" d="M306.9-197l7.5,16.7,7.6-16.7h8.7l-17.6,38.6h-8.9l5.9-13.1-11.9-25.5h8.7,0Z"/>
      <g>
        <path class="st1" d="M252.4-206.7c-7.4,0-13.5,6-13.6,13.4v13.4h13.6c7.4,0,13.4-6,13.4-13.4s-6.1-13.4-13.4-13.4ZM252.4-187.1h-6.2v-6.1c0-3.4,2.8-6.1,6.2-6.1s6.1,2.7,6.1,6.1-2.7,6.1-6.1,6.1Z"/>
        <polygon class="st1" points="238.8 -166.5 246.2 -169.9 246.2 -184.9 238.8 -184.9 238.8 -166.5"/>
      </g>
      <path class="st1" d="M75.8-188.6c0,2.8-.5,5.4-1.4,8s-2.3,4.8-4,6.8c-1.8,2-4,3.5-6.5,4.6-2.6,1.1-5.5,1.7-8.8,1.7s-5.5-.5-8-1.6c-2.5-1-4.7-2.5-6.6-4.2-1.9-1.8-3.4-3.9-4.4-6.3-1.1-2.4-1.6-5-1.6-7.7s.5-5.3,1.6-7.7,2.6-4.5,4.4-6.3c1.9-1.8,4.1-3.2,6.6-4.2s5.2-1.6,8-1.6,4.1.3,6.1.8c2,.6,3.8,1.3,5.5,2.3s3.2,2.2,4.5,3.6c1.3,1.4,2.4,3,3.2,4.7h-9.8c-1.1-1.2-2.5-2.1-4.2-2.9-1.7-.7-3.5-1.1-5.3-1.1s-3.3.3-4.8,1c-1.5.6-2.8,1.5-3.9,2.6-1.1,1.1-2,2.4-2.6,3.9-.7,1.5-1,3.1-1,4.8s.3,3.3,1,4.8,1.5,2.8,2.6,3.9c1.1,1.1,2.4,2,3.9,2.6,1.5.7,3.1,1,4.8,1s2.8-.2,4.1-.7,2.5-1.1,3.5-2c1.1-.8,2-1.8,2.7-3,.7-1.1,1.3-2.4,1.6-3.7h-9.5l-3.6-6.1h21.8v2h0ZM69.6-169.6v-21h6.2v17.5l-6.2,3.5Z"/>
    </g>
    <g>
      <path class="st1" d="M35.9-153.4h2.3l2.6,10.9h0l2.9-10.9h2.1l2.9,10.9h0l2.6-10.9h2.3l-3.7,13.9h-2.1l-3-10.5h0l-3,10.5h-2.1l-3.7-13.9h-.1Z"/>
      <path class="st1" d="M56.6-153.4h2.1v5.4h0c.3-.6.7-1,1.2-1.4s1.2-.5,1.9-.5,1.4.2,1.9.5,1,.8,1.3,1.4.4,1.3.4,2.1v6.3h-2.1v-5.9c0-.8-.2-1.5-.6-2-.4-.5-1-.7-1.7-.7s-.9,0-1.2.3c-.4.2-.6.5-.8.9s-.3.9-.3,1.4v5.9h-2.1v-13.9.2Z"/>
      <path class="st1" d="M70.7-140c-.7-.4-1.3-1-1.6-1.8-.4-.8-.6-1.7-.6-2.8h0c0-1.1.2-2,.6-2.8s.9-1.4,1.6-1.8,1.5-.7,2.5-.7,1.8.2,2.5.6,1.2,1,1.6,1.8c.4.8.6,1.7.6,2.7v.7h-8.2v-1.5h7.2l-1,1.4v-.8c0-.7-.1-1.3-.3-1.8s-.5-.8-.9-1.1-.8-.3-1.3-.3-.9,0-1.3.4c-.4.2-.7.6-.9,1.1s-.3,1.1-.3,1.7v.8c0,.7.1,1.2.3,1.7s.5.8.9,1.1.9.4,1.5.4.8,0,1.1-.2.6-.3.8-.5.4-.4.4-.7h2c0,.5-.2.9-.5,1.3-.2.4-.5.7-.9,1s-.8.5-1.3.7-1.1.3-1.7.3c-1,0-1.8-.2-2.6-.6l-.2-.3Z"/>
      <path class="st1" d="M80.8-149.7h2.1v1.7h0c.2-.6.4-1.1.9-1.4s.9-.5,1.5-.5.3,0,.4,0h.3v1.9h-1c-.4,0-.8,0-1.2.3-.3.2-.6.5-.8.8-.2.4-.3.8-.3,1.3v6h-2.1v-10.1h.2Z"/>
      <path class="st1" d="M90.1-140c-.7-.4-1.3-1-1.6-1.8-.4-.8-.6-1.7-.6-2.8h0c0-1.1.2-2,.6-2.8s.9-1.4,1.6-1.8,1.5-.7,2.5-.7,1.8.2,2.5.6,1.2,1,1.6,1.8c.4.8.6,1.7.6,2.7v.7h-8.2v-1.5h7.2l-1,1.4v-.8c0-.7-.1-1.3-.3-1.8s-.5-.8-.9-1.1-.8-.3-1.3-.3-.9,0-1.3.4c-.4.2-.7.6-.9,1.1s-.3,1.1-.3,1.7v.8c0,.7.1,1.2.3,1.7s.5.8.9,1.1.9.4,1.5.4.8,0,1.1-.2.6-.3.8-.5.4-.4.4-.7h2c0,.5-.2.9-.5,1.3-.2.4-.5.7-.9,1s-.8.5-1.3.7-1.1.3-1.7.3c-1,0-1.8-.2-2.6-.6l-.2-.3Z"/>
      <path class="st1" d="M106-153.4h8.7v1.9h-6.5v4.4h6v1.8h-6v5.8h-2.2v-13.9Z"/>
      <path class="st1" d="M118-151.6c-.2-.2-.4-.5-.4-.8s.1-.6.4-.9.5-.3.9-.3.6,0,.9.3c.2.2.4.5.4.9s-.1.6-.4.8c-.2.2-.5.4-.9.4s-.6,0-.9-.4ZM117.8-149.7h2.1v10.1h-2.1v-10.1Z"/>
      <path class="st1" d="M123.5-149.7h2.1v1.5h0c.3-.5.7-.9,1.2-1.2.5-.3,1.2-.5,1.9-.5,1.1,0,2,.3,2.6,1s.9,1.6.9,2.8v6.6h-2.1v-6.2c0-.8-.2-1.4-.5-1.8-.4-.4-.9-.6-1.6-.6s-.9,0-1.3.3-.6.5-.8.9-.3.9-.3,1.4v5.9h-2.1v-10.1h0Z"/>
      <path class="st1" d="M137.1-140c-.5-.5-.7-1.2-.7-2.2v-5.8h-1.5v-1.7h1.5v-2.6h2.1v2.6h1.9v1.7h-1.9v5.7c0,.5.1.9.3,1.1s.6.3,1,.3.2,0,.3,0h.3v1.6h-1.1c-1,0-1.7-.2-2.2-.7h0Z"/>
      <path class="st1" d="M145.1-140c-.7-.4-1.3-1-1.6-1.8-.4-.8-.6-1.7-.6-2.8h0c0-1.1.2-2,.6-2.8s.9-1.4,1.6-1.8,1.5-.7,2.5-.7,1.8.2,2.5.6,1.2,1,1.6,1.8.6,1.7.6,2.7v.7h-8.2v-1.5h7.2l-1,1.4v-.8c0-.7-.1-1.3-.3-1.8-.2-.5-.5-.8-.9-1.1s-.8-.3-1.3-.3-.9,0-1.3.4c-.4.2-.7.6-.9,1.1-.2.5-.3,1.1-.3,1.7v.8c0,.7.1,1.2.3,1.7.2.5.5.8.9,1.1s.9.4,1.5.4.8,0,1.1-.2.6-.3.8-.5.4-.4.4-.7h2c0,.5-.2.9-.5,1.3-.2.4-.5.7-.9,1s-.8.5-1.3.7-1.1.3-1.7.3c-1,0-1.8-.2-2.6-.6l-.2-.3Z"/>
      <path class="st1" d="M157-140c-.7-.4-1.3-1-1.7-1.8-.4-.8-.6-1.7-.6-2.8h0c0-1.1.2-2,.6-2.8s1-1.4,1.7-1.8,1.6-.6,2.5-.6,1.6.2,2.2.5,1.1.8,1.5,1.3.6,1.1.6,1.8h-2c-.1-.6-.4-1-.7-1.4-.4-.4-.9-.5-1.6-.5s-1,0-1.4.4-.7.7-.9,1.2-.3,1.1-.3,1.9h0c0,.7.1,1.4.3,1.9.2.5.5.9.9,1.2.4.3.9.4,1.4.4s1.2-.2,1.6-.5.7-.8.8-1.3h2c0,.7-.3,1.3-.7,1.9-.4.5-.9,1-1.5,1.3s-1.3.5-2.2.5-1.8-.2-2.6-.6v-.2Z"/>
      <path class="st1" d="M167-153.4h2.1v5.4h0c.3-.6.7-1,1.2-1.4s1.2-.5,1.9-.5,1.4.2,1.9.5,1,.8,1.3,1.4.4,1.3.4,2.1v6.3h-2.1v-5.9c0-.8-.2-1.5-.6-2s-1-.7-1.7-.7-.9,0-1.2.3c-.4.2-.6.5-.8.9-.2.4-.3.9-.3,1.4v5.9h-2.1v-13.9.2Z"/>
      <path class="st1" d="M185.1-153.4h4.9c1.4,0,2.6.3,3.5.8,1,.5,1.7,1.3,2.3,2.4.5,1,.8,2.3.8,3.7h0c0,1.5-.3,2.7-.8,3.8-.5,1-1.3,1.8-2.2,2.4-1,.5-2.2.8-3.5.8h-4.9v-13.9h0ZM189.8-141.4c1,0,1.8-.2,2.5-.6s1.2-1,1.6-1.7.5-1.7.5-2.8h0c0-1.1-.2-2-.5-2.8s-.9-1.3-1.6-1.7c-.7-.4-1.5-.6-2.5-.6h-2.5v10.2h2.5Z"/>
      <path class="st1" d="M199.8-149.7h2.1v1.7h0c.2-.6.4-1.1.9-1.4s.9-.5,1.5-.5.3,0,.4,0h.3v1.9h-1c-.4,0-.8,0-1.2.3-.3.2-.6.5-.8.8-.2.4-.3.8-.3,1.3v6h-2.1v-10.1h.2Z"/>
      <path class="st1" d="M209.1-140c-.7-.4-1.3-1-1.6-1.8-.4-.8-.6-1.7-.6-2.8h0c0-1.1.2-2,.6-2.8s.9-1.4,1.6-1.8,1.5-.7,2.5-.7,1.8.2,2.5.6,1.2,1,1.6,1.8.6,1.7.6,2.7v.7h-8.2v-1.5h7.2l-1,1.4v-.8c0-.7-.1-1.3-.3-1.8-.2-.5-.5-.8-.9-1.1s-.8-.3-1.3-.3-.9,0-1.3.4c-.4.2-.7.6-.9,1.1-.2.5-.3,1.1-.3,1.7v.8c0,.7.1,1.2.3,1.7.2.5.5.8.9,1.1s.9.4,1.5.4.8,0,1.1-.2.6-.3.8-.5.4-.4.4-.7h2c0,.5-.2.9-.5,1.3-.2.4-.5.7-.9,1s-.8.5-1.3.7-1.1.3-1.7.3c-1,0-1.8-.2-2.6-.6l-.2-.3Z"/>
      <path class="st1" d="M220.5-139.7c-.5-.3-.9-.6-1.2-1.1-.3-.5-.4-1-.4-1.6h0c0-.9.3-1.6,1-2.1s1.6-.8,2.8-.9l3.8-.2v1.5l-3.6.2c-.6,0-1.1.2-1.4.4-.3.3-.5.6-.5,1h0c0,.5.2.8.5,1.1.3.3.8.4,1.3.4s.9,0,1.3-.3c.4-.2.7-.5.9-.8.2-.3.3-.7.3-1.2v-3c0-.6-.2-1-.5-1.3s-.8-.5-1.5-.5-1.1,0-1.4.4-.6.6-.7,1h-2c0-.7.2-1.2.6-1.7.3-.5.8-.8,1.4-1.1s1.3-.4,2.1-.4,1.5,0,2.1.4,1.1.7,1.4,1.2.5,1.1.5,1.8v7h-2.1v-1.6h0c-.2.4-.5.7-.8.9s-.7.5-1.1.6-.8.2-1.3.2-1.3,0-1.8-.4h.3Z"/>
      <path class="st1" d="M231-149.7h2.1v1.6h0c.2-.5.6-1,1.1-1.3s1.1-.5,1.7-.5.9,0,1.3.2.7.4,1,.7c.3.3.5.7.6,1.1h0c.2-.4.4-.8.7-1.1.3-.3.7-.5,1.1-.7s.9-.2,1.3-.2,1.2,0,1.7.4.9.7,1.2,1.2c.3.5.4,1.1.4,1.8v7h-2.1v-6.5c0-.7-.2-1.2-.5-1.5s-.8-.5-1.4-.5-.8,0-1.1.3c-.3.2-.6.4-.7.8-.2.3-.3.7-.3,1.1v6.3h-2.1v-6.6c0-.6-.2-1.1-.5-1.4s-.8-.5-1.4-.5-.8,0-1.1.3c-.3.2-.6.5-.7.8-.2.3-.3.7-.3,1.2v6.3h-2.1v-10.3Z"/>
      <path class="st1" d="M250.3-139.7c-.6-.3-1.1-.6-1.4-1.1s-.6-1-.6-1.6h2.1c.1.6.3.9.7,1.2.4.3.8.4,1.5.4s.8,0,1.1-.2.5-.3.7-.5.2-.4.2-.7h0c0-.3-.1-.6-.3-.8s-.6-.4-1.1-.5l-1.7-.4c-1-.2-1.7-.6-2.2-1-.5-.5-.7-1.1-.7-1.8h0c0-.6.2-1.2.5-1.6s.8-.8,1.4-1.1c.6-.3,1.3-.4,2.1-.4s1.5,0,2.1.4,1,.6,1.4,1.1c.3.5.5,1,.5,1.6h0c0,0-2,0-2,0h0c0-.5-.3-.9-.6-1.2-.3-.3-.8-.4-1.4-.4s-.7,0-1,.2c-.3,0-.5.3-.6.5s-.2.4-.2.7h0c0,.3.1.6.3.8.2.2.6.4,1.2.5l1.7.4c1,.2,1.8.6,2.2,1,.4.4.7,1,.7,1.7h0c0,.6-.2,1.2-.5,1.6s-.8.8-1.5,1.1c-.6.3-1.3.4-2.1.4s-1.6,0-2.2-.4h-.3Z"/>
      <path class="st1" d="M265.4-153.4h2.2v13.9h-2.2v-13.9ZM266.5-141.3h4.1c1,0,1.7-.2,2.2-.6s.8-.9.8-1.7h0c0-.5-.1-.9-.4-1.3-.2-.3-.6-.6-1-.8-.5-.2-1-.3-1.7-.3h-3.9v-1.7h3.5c.9,0,1.7-.2,2.2-.6s.8-.9.8-1.6h0c0-.7-.2-1.2-.6-1.5s-1-.5-1.8-.5h-3.9v-1.8h4.5c.8,0,1.5,0,2.2.4s1.1.7,1.4,1.2.5,1.1.5,1.8h0c0,.5-.1,1-.3,1.4-.2.4-.5.8-.9,1.1-.4.3-.8.5-1.3.5h0c.7,0,1.2.3,1.7.6.5.3.9.7,1.1,1.2.3.5.4,1,.4,1.7h0c0,.8-.2,1.5-.6,2.1s-.9,1-1.6,1.3-1.6.5-2.5.5h-4.5v-1.8l-.4.4Z"/>
      <path class="st1" d="M280.6-140c-.7-.4-1.3-1-1.6-1.8-.4-.8-.6-1.7-.6-2.8h0c0-1.1.2-2,.6-2.8s.9-1.4,1.6-1.8,1.5-.7,2.5-.7,1.8.2,2.5.6,1.2,1,1.6,1.8.6,1.7.6,2.7v.7h-8.2v-1.5h7.2l-1,1.4v-.8c0-.7-.1-1.3-.3-1.8-.2-.5-.5-.8-.9-1.1s-.8-.3-1.3-.3-.9,0-1.3.4c-.4.2-.7.6-.9,1.1-.2.5-.3,1.1-.3,1.7v.8c0,.7.1,1.2.3,1.7.2.5.5.8.9,1.1s.9.4,1.5.4.8,0,1.1-.2.6-.3.8-.5.4-.4.4-.7h2c0,.5-.2.9-.5,1.3-.2.4-.5.7-.9,1s-.8.5-1.3.7-1.1.3-1.7.3c-1,0-1.8-.2-2.6-.6l-.2-.3Z"/>
      <path class="st1" d="M292.9-136.3c-.6-.2-1.2-.6-1.6-1s-.6-.9-.7-1.4h2.1c.1.4.4.7.9.9.4.2,1,.3,1.6.3s1.5-.2,1.9-.6.7-1,.7-1.7v-1.4h0c-.2.4-.4.7-.8,1-.3.3-.7.5-1.1.6s-.9.2-1.3.2c-.8,0-1.6-.2-2.2-.6s-1.1-1-1.5-1.8c-.3-.8-.5-1.7-.5-2.7h0c0-1.1.2-2,.5-2.8.4-.8.8-1.4,1.5-1.8.6-.4,1.4-.6,2.2-.6s.9,0,1.3.2.8.4,1.1.7c.3.3.6.6.8,1h0v-1.7h2.1v9.9c0,.8-.2,1.4-.6,2s-.9,1-1.6,1.3-1.5.5-2.5.5-1.6,0-2.3-.4h0ZM296.5-141.7c.4-.3.7-.7.9-1.2.2-.5.3-1.1.3-1.8h0c0-.7-.1-1.3-.3-1.8-.2-.5-.5-.9-.9-1.2-.4-.3-.9-.4-1.4-.4s-1,0-1.4.4-.7.7-.9,1.2c-.2.5-.3,1.1-.3,1.8h0c0,.7.1,1.3.3,1.8s.5.9.9,1.2c.4.3.9.4,1.4.4s1,0,1.4-.4Z"/>
      <path class="st1" d="M303.6-151.6c-.2-.2-.4-.5-.4-.8s.1-.6.4-.9.5-.3.9-.3.6,0,.9.3c.2.2.4.5.4.9s-.1.6-.4.8c-.2.2-.5.4-.9.4s-.6,0-.9-.4ZM303.4-149.7h2.1v10.1h-2.1v-10.1Z"/>
      <path class="st1" d="M309.1-149.7h2.1v1.5h0c.3-.5.7-.9,1.2-1.2.5-.3,1.2-.5,1.9-.5,1.1,0,2,.3,2.6,1s.9,1.6.9,2.8v6.6h-2.1v-6.2c0-.8-.2-1.4-.5-1.8-.4-.4-.9-.6-1.6-.6s-.9,0-1.3.3-.6.5-.8.9c-.2.4-.3.9-.3,1.4v5.9h-2.1v-10.1h0Z"/>
    </g>
  </g>
</svg>