<?xml version="1.0" encoding="utf-8"?>
<!-- Generator: Adobe Illustrator 28.1.0, SVG Export Plug-In . SVG Version: 6.00 Build 0)  -->
<svg version="1.1" id="Layer_1" xmlns="http://www.w3.org/2000/svg" xmlns:xlink="http://www.w3.org/1999/xlink" x="0px" y="0px"
	 viewBox="0 0 243.3 214.4" style="enable-background:new 0 0 243.3 214.4;" xml:space="preserve">
<style type="text/css">
	.st0{fill:#0A8AA9;}
</style>
<g>
	<polygon class="st0" points="124,195.8 154.3,183.7 154.3,128.9 124,128.9 	"/>
	<path class="st0" d="M179.8,8.7c-30.6,0-55.7,25.2-55.7,55.8v25.1H65.8c-30.8,0-55.8,25-55.8,55.8c0,30.5,25.1,56,55.8,55.8
		C96,201,121,175.9,121,145.4v-16.5h-1.1H90.8h-0.3H65.8l13.6,23.2H90c-3,10.6-12.8,18.4-24.2,18.4c-13.9,0-25.2-11.3-25.2-25.2
		s11.3-25.2,25.2-25.2h24.6h0.3H121h0.6l0,0c19,0,30.6,0.1,49.8,0.1h8.4c30.8,0,55.8-25,55.8-55.8C235.6,33.9,210.4,8.7,179.8,8.7z
		 M179.8,89.7h-25.5V64.5c0.1-13.9,11.7-25.3,25.5-25.2c13.7,0.1,25.2,11.3,25.2,25.2S193.7,89.7,179.8,89.7z"/>
</g>
</svg>
